<svg xmlns="http://www.w3.org/2000/svg" viewBox="0 0 128 128">
  <rect width="128" height="128" fill="#2d1b69"/>
  <g fill="#4ade80">
    <rect x="40" y="24" width="8" height="8"/><rect x="48" y="24" width="8" height="8"/>
    <rect x="32" y="32" width="8" height="8"/><rect x="40" y="32" width="8" height="8"/><rect x="48" y="32" width="8" height="8"/><rect x="56" y="32" width="8" height="8"/>
    <rect x="32" y="40" width="8" height="8"/><rect x="40" y="40" width="8" height="8"/>
    <rect x="32" y="48" width="8" height="8"/><rect x="40" y="48" width="8" height="8"/><rect x="48" y="48" width="8" height="8"/>
    <rect x="32" y="56" width="8" height="8"/><rect x="40" y="56" width="8" height="8"/>
    <rect x="32" y="64" width="8" height="8"/><rect x="40" y="64" width="8" height="8"/>
    <rect x="32" y="72" width="8" height="8"/><rect x="40" y="72" width="8" height="8"/>
  </g>
  <rect x="64" y="68" width="40" height="28" rx="2" fill="#facc15"/>
  <text x="84" y="88" font-family="monospace" font-weight="bold" font-size="18" text-anchor="middle" fill="#2d1b69">af</text>
</svg>
